<svg width="471" height="206" viewBox="0 0 471 206" fill="none" xmlns="http://www.w3.org/2000/svg">
<path d="M216.764 150.857C212.3 150.857 208.655 148.691 205.828 144.357C203.149 140.173 202.108 135.166 202.703 129.338C203.447 122.165 205.158 113.722 207.836 104.009C210.663 94.1458 214.086 83.8346 218.103 73.0751C222.269 62.1661 226.659 51.6308 231.272 41.469C229.337 44.1589 226.956 47.4465 224.129 51.3319C221.451 55.0678 218.401 59.4015 214.978 64.333L210.961 70.161C207.539 75.0925 204.414 79.5009 201.587 83.3863C198.76 87.2717 196.23 90.7087 193.998 93.6975C193.701 93.9964 193.031 94.8183 191.99 96.1632C191.097 97.3587 189.832 99.0025 188.195 101.095C186.559 103.187 184.773 105.354 182.839 107.595C181.053 109.687 179.193 111.779 177.259 113.872C168.331 123.884 162.305 128.89 159.18 128.89C154.716 129.04 151.369 127.022 149.137 122.838C146.905 118.654 145.789 112.9 145.789 105.578C145.789 102.589 146.012 99.3014 146.458 95.7149C147.649 84.3576 150.773 69.638 155.832 51.556L160.966 33.1752C161.71 30.6347 162.231 28.3185 162.528 26.2263C162.826 24.1342 163.049 22.1915 163.198 20.3983C163.198 18.4556 163.793 17.1106 164.983 16.3634C166.322 15.4668 167.959 15.0185 169.894 15.0185C171.977 15.0185 173.837 15.4668 175.473 16.3634C177.259 17.2601 178.077 18.2314 177.929 19.2775C177.482 22.1168 176.887 25.0308 176.143 28.0196C175.399 31.0083 174.506 34.1465 173.465 37.4342C173.167 38.6297 172.572 40.1988 171.679 42.1415C170.935 44.0841 169.968 46.3257 168.778 48.8662L166.099 54.9184C162.826 62.2408 160.222 69.115 158.288 75.5408C156.353 81.9666 155.014 88.5419 154.27 95.2666C154.121 95.8643 154.047 96.6863 154.047 97.7323C154.047 98.6289 154.047 99.675 154.047 100.871C154.047 105.354 154.791 108.567 156.279 110.509C157.916 112.302 160.445 113.274 163.867 113.423C165.355 113.423 167.29 112.601 169.67 110.958C172.2 109.314 174.804 107.296 177.482 104.905C180.16 102.514 182.69 100.049 185.071 97.5082C187.6 94.8183 189.609 92.502 191.097 90.5593C200.025 79.202 208.208 68.2184 215.648 57.6083C223.237 46.8487 229.635 36.8364 234.843 27.5713C240.199 18.3061 243.919 10.2365 246.002 3.36236C246.746 1.12079 248.532 0 251.359 0C253.591 0 255.6 0.747188 257.385 2.24156C259.171 3.73595 259.617 5.37977 258.724 7.17301L254.93 14.5702C250.912 22.4904 247.044 30.037 243.324 37.21C239.753 44.2336 236.554 51.033 233.727 57.6083L233.503 57.3841C227.403 71.4313 222.567 84.3576 218.996 96.1632C215.574 107.819 213.342 118.429 212.3 127.993C212.003 132.327 212.523 136.138 213.863 139.425C215.35 142.713 217.508 144.357 220.335 144.357C224.055 144.357 227.998 141.667 232.164 136.287C233.652 134.345 234.991 133.597 236.182 134.046C236.628 134.494 236.851 134.868 236.851 135.166C236.851 135.914 236.554 136.586 235.959 137.184C232.834 141.816 229.56 145.254 226.138 147.495C222.865 149.737 219.74 150.857 216.764 150.857ZM33.0765 163.41C23.256 163.41 15.4443 160.197 9.64128 153.771C3.83827 147.495 0.936768 138.678 0.936768 127.321C0.936768 111.63 6.59098 93.5481 17.8994 73.0751C25.6367 59.0279 34.1925 48.642 43.5666 41.9173C53.0894 35.0432 62.1659 31.6061 70.7961 31.6061C78.3846 31.6061 84.634 33.9224 89.5442 38.5549C94.6033 43.1875 97.1328 49.0903 97.1328 56.2633C97.1328 61.6431 95.5704 67.247 92.4457 73.0751C89.4698 78.9032 84.8572 84.7312 78.6078 90.5593C77.8638 91.3065 77.1198 91.6801 76.3759 91.6801C75.6319 91.6801 75.2599 91.2318 75.2599 90.3351C75.2599 89.4385 75.8551 88.3925 77.0454 87.197C81.5093 82.5644 84.8572 77.9318 87.0891 73.2992C89.321 68.5172 90.437 64.0341 90.437 59.8498C90.437 53.8723 88.5027 49.0156 84.634 45.2797C80.7653 41.3943 75.8551 39.4516 69.9033 39.4516C62.7611 39.4516 55.247 42.4403 47.3608 48.4178C39.6235 54.2459 32.3325 63.3616 25.488 75.765C14.4771 96.2379 8.9717 113.647 8.9717 127.993C8.9717 137.109 11.1292 144.207 15.4443 149.288C19.9081 154.369 26.0087 156.91 33.7461 156.91C40.7394 156.91 48.5512 154.818 57.1813 150.633C65.8114 146.449 74.9623 140.098 84.634 131.58C98.0256 119.625 110.301 105.503 121.461 89.2144C127.115 80.9953 131.43 74.7189 134.406 70.3852C137.382 66.0515 139.019 63.6605 139.316 63.2122C141.697 59.9246 144.226 56.4128 146.905 52.6768C149.583 48.7914 152.41 44.6072 155.386 40.124C155.832 39.3769 156.279 39.4516 156.725 40.3482C157.469 41.5437 157.544 42.5151 156.948 43.2622C153.526 48.3431 149.657 54.4701 145.342 61.6431C141.176 68.6667 136.415 76.5869 131.058 85.4037L127.041 91.9042H127.264C115.36 110.435 102.043 125.901 87.3123 138.305C77.4918 146.673 67.8945 152.95 58.5205 157.134C49.2952 161.318 40.8138 163.41 33.0765 163.41Z" fill="white"/>
<path d="M275.061 143.236C274.763 143.236 274.466 143.161 274.168 143.012C273.871 143.012 273.573 142.937 273.275 142.788C271.192 141.742 269.853 140.247 269.258 138.305C268.663 136.362 268.514 133.896 268.811 130.907C269.109 129.712 269.407 127.62 269.704 124.631C270.151 121.642 270.671 119.251 271.267 117.458L259.884 128.442L253.634 134.494C249.319 138.828 245.748 140.995 242.921 140.995C241.731 140.995 240.764 140.546 240.02 139.65C238.68 138.006 238.011 135.988 238.011 133.597C238.011 130.459 238.829 127.097 240.466 123.51C242.103 119.924 244.037 116.487 246.269 113.199C248.501 109.762 250.51 106.923 252.295 104.681C256.759 99.152 261.074 94.8183 265.24 91.6801C269.555 88.5419 274.019 86.9728 278.632 86.9728C281.161 86.9728 283.617 87.4211 285.997 88.3177C288.527 89.2144 290.833 90.7087 292.916 92.8009L293.139 93.025C293.139 93.4733 292.767 93.9216 292.024 94.37C291.726 94.6688 291.428 94.893 291.131 95.0424C290.982 95.1919 290.833 95.3413 290.684 95.4908C288.899 97.284 286.89 100.273 284.658 104.457C282.426 108.641 280.492 113.05 278.855 117.682C277.218 122.165 276.4 126.051 276.4 129.338C276.4 132.327 277.144 134.345 278.632 135.391C279.376 135.839 280.194 136.063 281.087 136.063C283.021 136.063 285.7 134.868 289.122 132.477C289.271 132.327 289.568 132.103 290.015 131.804C290.61 131.356 291.428 130.758 292.47 130.011C293.66 129.114 294.627 128.666 295.371 128.666C296.115 128.666 296.487 128.965 296.487 129.563C296.487 130.459 295.892 131.505 294.702 132.701C293.809 133.448 292.767 134.27 291.577 135.166C290.536 136.063 289.271 136.96 287.783 137.856C285.551 139.5 283.245 140.77 280.864 141.667C278.483 142.713 276.549 143.236 275.061 143.236ZM249.84 128.89C252.965 128.89 258.768 124.258 267.249 114.992C269.481 112.452 271.49 110.061 273.275 107.819C275.061 105.428 276.698 103.112 278.186 100.871C280.864 96.5368 281.757 93.5481 280.864 91.9042C280.417 91.0076 279.525 90.5593 278.186 90.5593C276.549 90.5593 274.317 91.4559 271.49 93.2492C268.663 94.893 265.761 97.0598 262.785 99.7497C259.958 102.44 257.354 105.129 254.974 107.819C253.337 109.911 251.7 112.826 250.063 116.561C248.427 120.297 247.608 123.361 247.608 125.752C247.608 127.844 248.352 128.89 249.84 128.89Z" fill="white"/>
<path d="M302.378 140.77C299.699 140.77 298.36 139.724 298.36 137.632C298.36 136.287 298.806 134.569 299.699 132.477C300.741 130.384 301.782 128.367 302.824 126.424C305.651 121.343 308.255 116.412 310.636 111.63C313.016 106.848 315.323 101.767 317.555 96.3874C318.596 93.9964 320.159 92.8009 322.242 92.8009C324.474 92.8009 325.143 94.1458 324.25 96.8357C323.358 99.0773 322.465 101.095 321.572 102.888C317.406 111.406 315.323 117.159 315.323 120.148C315.323 121.493 315.769 122.315 316.662 122.614C318.745 120.97 320.307 119.774 321.349 119.027C322.39 118.131 322.986 117.608 323.134 117.458C325.218 115.814 327.524 113.946 330.053 111.854C332.732 109.613 335.633 107.072 338.758 104.233C343.668 99.7497 347.76 97.5082 351.034 97.5082C355.051 97.5082 356.762 101.169 356.167 108.492C356.018 111.331 356.018 114.096 356.167 116.786C356.316 117.383 356.39 118.28 356.39 119.476C356.39 120.522 356.39 121.792 356.39 123.286C356.39 124.781 357.283 125.528 359.068 125.528C361.152 125.528 363.086 124.93 364.871 123.734L369.782 120.372L374.692 117.234C374.99 117.085 375.51 117.01 376.254 117.01C377.147 117.01 377.147 117.682 376.254 119.027C366.88 130.683 359.143 136.511 353.042 136.511C351.852 136.511 350.662 136.287 349.471 135.839C348.43 135.391 347.686 134.12 347.239 132.028C346.793 129.787 346.495 127.396 346.346 124.855C346.346 122.315 346.346 120.372 346.346 119.027L346.57 111.63C346.57 108.492 345.751 106.923 344.115 106.923C340.246 106.923 330.723 114.918 315.546 130.907C314.356 132.402 312.496 134.419 309.966 136.96C307.437 139.5 304.907 140.77 302.378 140.77Z" fill="white"/>
<path d="M384.042 140.995C378.239 140.995 375.337 138.379 375.337 133.149C375.337 132.85 375.337 132.327 375.337 131.58C375.486 130.833 375.635 129.936 375.784 128.89C377.271 122.763 380.247 116.86 384.711 111.182C389.324 105.354 394.606 100.273 400.558 95.9391C402.79 94.1458 406.361 93.2492 411.271 93.2492C414.098 93.2492 416.553 93.6975 418.636 94.5941C420.868 95.3413 422.431 96.5368 423.324 98.1806C424.216 99.675 424.663 101.394 424.663 103.336C424.663 103.635 424.588 104.083 424.439 104.681C424.439 105.279 424.365 105.951 424.216 106.699C424.514 106.549 424.96 106.474 425.555 106.474C426.299 106.474 427.192 106.4 428.234 106.25C429.275 106.101 430.242 105.951 431.135 105.802C432.177 105.653 433.218 105.578 434.26 105.578H435.153C436.789 105.578 436.938 106.25 435.599 107.595C434.409 108.791 432.772 109.538 430.689 109.837L423.1 110.733C421.612 114.918 419.008 119.102 415.289 123.286C411.718 127.47 407.7 131.132 403.236 134.27C398.921 137.259 394.829 139.201 390.961 140.098C388.729 140.696 386.422 140.995 384.042 140.995ZM412.61 107.595C413.503 107.595 414.545 107.595 415.735 107.595C417.074 107.446 418.562 107.296 420.199 107.147C420.348 106.848 420.422 106.176 420.422 105.129C420.422 102.44 419.306 100.572 417.074 99.5256C415.884 98.7784 414.396 98.4048 412.61 98.4048C410.378 98.4048 408.072 99.152 405.691 100.646C403.459 101.991 401.079 103.785 398.549 106.026C401.674 107.072 406.361 107.595 412.61 107.595ZM390.737 133.149C392.225 133.149 394.309 132.477 396.987 131.132C399.814 129.637 402.715 127.695 405.691 125.304C408.667 122.913 411.346 120.372 413.726 117.682C414.47 116.935 415.214 116.038 415.958 114.992C416.702 113.797 417.521 112.601 418.413 111.406L413.057 112.078C404.724 113.274 397.284 113.946 390.737 114.096C387.464 119.476 385.455 123.959 384.711 127.545C384.562 129.488 385.083 130.907 386.274 131.804C387.464 132.701 388.952 133.149 390.737 133.149Z" fill="white"/>
<path d="M453.528 78.4548C451.593 78.4548 450.626 78.0065 450.626 77.1099C450.626 76.3627 451.147 75.3166 452.189 73.9717C453.379 72.4773 454.718 71.2071 456.206 70.161C459.48 68.0689 462.009 66.2757 463.795 64.7813C465.729 63.2869 468.035 60.7465 470.714 57.16C470.862 57.4588 470.937 58.0566 470.937 58.9532C470.937 60.8959 470.118 63.2869 468.482 66.1262C466.994 68.8161 465.283 71.2818 463.348 73.5234C461.414 75.765 459.703 77.1846 458.215 77.7824C456.876 78.2307 455.313 78.4548 453.528 78.4548ZM390.587 206C388.207 206 386.347 204.804 385.008 202.413C383.668 200.022 382.999 197.034 382.999 193.447C382.999 189.861 383.668 186.199 385.008 182.464C386.347 178.728 388.356 175.515 391.034 172.825C391.48 172.376 391.852 172.152 392.15 172.152C393.191 172.152 393.712 172.825 393.712 174.17C393.712 174.917 393.489 175.739 393.043 176.635C390.067 184.257 388.579 189.786 388.579 193.223C388.579 196.212 389.546 197.706 391.48 197.706C394.307 197.706 398.25 194.717 403.309 188.74C408.517 182.762 414.023 174.17 419.826 162.962C425.629 151.904 431.134 139.201 436.342 124.855L438.574 118.803C441.103 111.779 443.187 105.951 444.823 101.319C446.609 96.6863 447.576 93.1745 447.725 90.7835C448.022 89.588 448.99 88.9902 450.626 88.9902C451.965 88.9902 453.305 89.3638 454.644 90.111C456.132 90.8582 456.801 91.5306 456.652 92.1284C455.908 95.1172 455.016 97.9565 453.974 100.646C453.081 103.336 452.114 105.877 451.073 108.268C450.031 110.659 449.213 112.527 448.618 113.872C448.022 115.217 447.65 116.113 447.502 116.561C440.359 134.793 430.613 154.444 418.263 175.515C413.651 183.435 409.782 189.487 406.657 193.671C403.533 198.005 400.334 201.293 397.06 203.534C394.679 205.178 392.522 206 390.587 206Z" fill="white"/>
</svg>
